# xmcd
#
# Track frame offsets: 
#        150
#        5559
#        18926
#        31501
#        54294
#        70762
#        86090
#        102785
#
# Disc length: 1496 seconds
#
# Revision: 0
# Processed by: cddbd v1.5.1PL0 Copyright (c) Steve Scherf et al.
# Submitted via: ExactAudioCopy v0.95a5
#
DISCID=5005d608
DTITLE=Matchbox Bluesband - Santa's Got The Blues!
DYEAR=2000
DGENRE=Blues
TTITLE0=Warme Weihnachts-Wünsche-Worte
TTITLE1=Boogie Woogie Santa Claus
TTITLE2=Run, Rudolph, Run
TTITLE3=Merry Christmas, Baby
TTITLE4=Santa Claus
TTITLE5=Santa Claus Is Back In Town
TTITLE6=Blues and Beyond Bonus-Track: Feelin' Good
TTITLE7=Leg die Kutte ab, du Weihnachtsmann!
EXTD=
EXTT0=
EXTT1=
EXTT2=
EXTT3=
EXTT4=
EXTT5=
EXTT6=
EXTT7=
PLAYORDER=
